<?xml version="1.0" encoding="UTF-8" standalone="no"?>
<svg
   xmlns:dc="http://purl.org/dc/elements/1.1/"
   xmlns:cc="http://creativecommons.org/ns#"
   xmlns:rdf="http://www.w3.org/1999/02/22-rdf-syntax-ns#"
   xmlns:svg="http://www.w3.org/2000/svg"
   xmlns="http://www.w3.org/2000/svg"
   xmlns:sodipodi="http://sodipodi.sourceforge.net/DTD/sodipodi-0.dtd"
   xmlns:inkscape="http://www.inkscape.org/namespaces/inkscape"
   inkscape:version="1.0 (4035a4fb49, 2020-05-01)"
   sodipodi:docname="rosaparks-mural-xonly.svg"
   viewBox="0 0 2449.0667 1378.1333"
   height="1378.1333"
   width="2449.0667"
   id="svg62"
   version="1.1">
  <metadata
     id="metadata68">
    <rdf:RDF>
      <cc:Work
         rdf:about="">
        <dc:format>image/svg+xml</dc:format>
        <dc:type
           rdf:resource="http://purl.org/dc/dcmitype/StillImage" />
        <dc:title></dc:title>
      </cc:Work>
    </rdf:RDF>
  </metadata>
  <defs
     id="defs66">
    <rect
       id="rect1327"
       height="174.56699"
       width="933.60193"
       y="383.38446"
       x="708.21164" />
  </defs>
  <sodipodi:namedview
     inkscape:current-layer="svg62"
     inkscape:window-maximized="1"
     inkscape:window-y="0"
     inkscape:window-x="0"
     inkscape:cy="534.43711"
     inkscape:cx="1006.8511"
     inkscape:zoom="2.56"
     showgrid="false"
     id="namedview64"
     inkscape:window-height="1006"
     inkscape:window-width="1920"
     inkscape:pageshadow="2"
     inkscape:pageopacity="0"
     guidetolerance="10"
     gridtolerance="10"
     objecttolerance="10"
     borderopacity="1"
     bordercolor="#666666"
     pagecolor="#ffffff" />
  <path
     id="path1277"
     d="M 334.76563,139.45313 1993.1572,125.9534 2026.1719,1260.9375 302.34375,1254.2969 Z"
     style="fill:none;stroke:#000000;stroke-width:1px;stroke-linecap:butt;stroke-linejoin:miter;stroke-opacity:1" />
  <path
     id="path1279"
     d="M 277.34375,78.125 230.85938,1323.4375 2094.5313,1334.7656 2057.8125,61.328125 Z"
     style="fill:none;stroke:#000000;stroke-width:1px;stroke-linecap:butt;stroke-linejoin:miter;stroke-opacity:1" />
  <path
     id="path1321"
     d="m 658.49319,461.00048 16.02039,9.11505"
     style="fill:none;stroke:#ff0000;stroke-width:1px;stroke-linecap:butt;stroke-linejoin:miter;stroke-opacity:1" />
  <path
     id="path1323"
     d="M 672.16577,453.81892 659.73615,473.5682"
     style="fill:none;stroke:#ff0000;stroke-width:1px;stroke-linecap:butt;stroke-linejoin:miter;stroke-opacity:1" />
  <g
     style="font-style:normal;font-weight:normal;font-size:85.3333px;line-height:1.25;font-family:sans-serif;letter-spacing:0px;word-spacing:0px;white-space:pre;shape-inside:url(#rect1327);fill:#000000;fill-opacity:1;stroke:none"
     id="text1325"
     transform="translate(-26.240291,31.488349)"
     aria-label="&lt;- x marks the spot">
    <path
       id="path2108"
       style="font-style:normal;font-weight:normal;font-size:85.3333px;line-height:1.25;font-family:sans-serif;letter-spacing:0px;word-spacing:0px;white-space:pre;shape-inside:url(#rect1327);fill:#000000;fill-opacity:1;stroke:none"
       d="m 770.66924,416.88475 -42.99998,15.29166 42.99998,15.20833 v 7.58333 L 717.2526,435.59308 v -6.91667 l 53.41664,-19.37499 z" />
    <path
       id="path2110"
       style="font-style:normal;font-weight:normal;font-size:85.3333px;line-height:1.25;font-family:sans-serif;letter-spacing:0px;word-spacing:0px;white-space:pre;shape-inside:url(#rect1327);fill:#000000;fill-opacity:1;stroke:none"
       d="m 783.87757,432.09308 h 22.45833 v 6.83333 h -22.45833 z" />
    <path
       id="path2112"
       style="font-style:normal;font-weight:normal;font-size:85.3333px;line-height:1.25;font-family:sans-serif;letter-spacing:0px;word-spacing:0px;white-space:pre;shape-inside:url(#rect1327);fill:#000000;fill-opacity:1;stroke:none"
       d="m 884.46086,412.21809 -16.87499,22.70832 17.74999,23.95832 h -9.04166 l -13.58333,-18.33332 -13.58333,18.33332 h -9.04166 l 18.12499,-24.41665 -16.58332,-22.24999 h 9.04166 l 12.37499,16.62499 12.375,-16.62499 z" />
    <path
       id="path2114"
       style="font-style:normal;font-weight:normal;font-size:85.3333px;line-height:1.25;font-family:sans-serif;letter-spacing:0px;word-spacing:0px;white-space:pre;shape-inside:url(#rect1327);fill:#000000;fill-opacity:1;stroke:none"
       d="m 959.6275,421.17642 q 2.875,-5.16667 6.875,-7.625 3.99999,-2.45833 9.41666,-2.45833 7.29166,0 11.24999,5.125 3.95834,5.08333 3.95834,14.49999 v 28.16665 h -7.70833 v -27.91665 q 0,-6.70833 -2.375,-9.95833 -2.375,-3.25 -7.25,-3.25 -5.95833,0 -9.41666,3.95833 -3.45833,3.95833 -3.45833,10.79167 v 26.37498 h -7.70833 v -27.91665 q 0,-6.75 -2.375,-9.95833 -2.375,-3.25 -7.33333,-3.25 -5.875,0 -9.33333,4 -3.45834,3.95833 -3.45834,10.75 v 26.37498 h -7.70833 v -46.66664 h 7.70833 v 7.24999 q 2.625,-4.29166 6.29167,-6.33333 3.66666,-2.04166 8.70833,-2.04166 5.08333,0 8.62499,2.58333 3.58334,2.58333 5.29167,7.5 z" />
    <path
       id="path2116"
       style="font-style:normal;font-weight:normal;font-size:85.3333px;line-height:1.25;font-family:sans-serif;letter-spacing:0px;word-spacing:0px;white-space:pre;shape-inside:url(#rect1327);fill:#000000;fill-opacity:1;stroke:none"
       d="m 1027.6275,435.42641 q -9.2917,0 -12.875,2.125 -3.5834,2.125 -3.5834,7.25 0,4.08333 2.6667,6.49999 2.7083,2.375 7.3333,2.375 6.375,0 10.2084,-4.5 3.875,-4.54166 3.875,-12.04166 v -1.70833 z m 15.2916,-3.16666 v 26.62498 h -7.6666 v -7.08333 q -2.625,4.25 -6.5417,6.29167 -3.9167,2 -9.5833,2 -7.1667,0 -11.4167,-4 -4.2083,-4.04167 -4.2083,-10.79166 0,-7.875 5.25,-11.875 5.2916,-4 15.75,-4 h 10.75 v -0.75 q 0,-5.29166 -3.5,-8.16666 -3.4584,-2.91667 -9.75,-2.91667 -4,0 -7.7917,0.95834 -3.7917,0.95833 -7.2917,2.875 v -7.08333 q 4.2084,-1.625 8.1667,-2.41667 3.9583,-0.83333 7.7083,-0.83333 10.125,0 15.125,5.25 5,5.24999 5,15.91666 z" />
    <path
       id="path2118"
       style="font-style:normal;font-weight:normal;font-size:85.3333px;line-height:1.25;font-family:sans-serif;letter-spacing:0px;word-spacing:0px;white-space:pre;shape-inside:url(#rect1327);fill:#000000;fill-opacity:1;stroke:none"
       d="m 1085.7524,419.38475 q -1.2916,-0.75 -2.8333,-1.08333 -1.5,-0.375 -3.3333,-0.375 -6.5,0 -10,4.25 -3.4583,4.20833 -3.4583,12.12499 v 24.58332 h -7.7084 v -46.66664 h 7.7084 v 7.24999 q 2.4166,-4.24999 6.2916,-6.29166 3.875,-2.08333 9.4167,-2.08333 0.7916,0 1.75,0.125 0.9583,0.0833 2.125,0.29166 z" />
    <path
       id="path2120"
       style="font-style:normal;font-weight:normal;font-size:85.3333px;line-height:1.25;font-family:sans-serif;letter-spacing:0px;word-spacing:0px;white-space:pre;shape-inside:url(#rect1327);fill:#000000;fill-opacity:1;stroke:none"
       d="m 1093.5024,394.05143 h 7.7084 v 38.29165 l 22.875,-20.12499 h 9.7916 l -24.75,21.83332 25.7917,24.83332 h -10 l -23.7083,-22.79165 v 22.79165 h -7.7084 z" />
    <path
       id="path2122"
       style="font-style:normal;font-weight:normal;font-size:85.3333px;line-height:1.25;font-family:sans-serif;letter-spacing:0px;word-spacing:0px;white-space:pre;shape-inside:url(#rect1327);fill:#000000;fill-opacity:1;stroke:none"
       d="m 1172.9607,413.59309 v 7.24999 q -3.2499,-1.66666 -6.7499,-2.5 -3.5,-0.83333 -7.25,-0.83333 -5.7084,0 -8.5834,1.75 -2.8333,1.75 -2.8333,5.25 0,2.66666 2.0417,4.20833 2.0416,1.5 8.2083,2.875 l 2.625,0.58333 q 8.1667,1.75 11.5833,4.95833 3.4583,3.16667 3.4583,8.875 0,6.5 -5.1666,10.29166 -5.125,3.79167 -14.125,3.79167 -3.75,0 -7.8333,-0.75 -4.0417,-0.70834 -8.5417,-2.16667 v -7.91666 q 4.25,2.20833 8.375,3.33333 4.125,1.08333 8.1667,1.08333 5.4166,0 8.3333,-1.83333 2.9167,-1.875 2.9167,-5.25 0,-3.125 -2.125,-4.79166 -2.0834,-1.66667 -9.2084,-3.20833 l -2.6666,-0.625 q -7.125,-1.5 -10.2917,-4.58334 -3.1667,-3.12499 -3.1667,-8.54166 0,-6.58333 4.6667,-10.16666 4.6667,-3.58333 13.25,-3.58333 4.25,0 8,0.625 3.75,0.625 6.9166,1.875 z" />
    <path
       id="path2124"
       style="font-style:normal;font-weight:normal;font-size:85.3333px;line-height:1.25;font-family:sans-serif;letter-spacing:0px;word-spacing:0px;white-space:pre;shape-inside:url(#rect1327);fill:#000000;fill-opacity:1;stroke:none"
       d="m 1222.3774,398.96809 v 13.25 h 15.7916 v 5.95833 h -15.7916 v 25.33332 q 0,5.70833 1.5416,7.33333 1.5834,1.625 6.375,1.625 h 7.875 v 6.41666 h -7.875 q -8.875,0 -12.25,-3.29166 -3.375,-3.33333 -3.375,-12.08333 v -25.33332 h -5.625 v -5.95833 h 5.625 v -13.25 z" />
    <path
       id="path2126"
       style="font-style:normal;font-weight:normal;font-size:85.3333px;line-height:1.25;font-family:sans-serif;letter-spacing:0px;word-spacing:0px;white-space:pre;shape-inside:url(#rect1327);fill:#000000;fill-opacity:1;stroke:none"
       d="m 1287.044,430.71808 v 28.16665 h -7.6667 v -27.91665 q 0,-6.625 -2.5833,-9.91666 -2.5833,-3.29167 -7.75,-3.29167 -6.2083,0 -9.7916,3.95833 -3.5834,3.95833 -3.5834,10.79167 v 26.37498 h -7.7083 v -64.8333 h 7.7083 v 25.41665 q 2.75,-4.20833 6.4584,-6.29166 3.7499,-2.08333 8.6249,-2.08333 8.0417,0 12.1667,5 4.125,4.95833 4.125,14.62499 z" />
    <path
       id="path2128"
       style="font-style:normal;font-weight:normal;font-size:85.3333px;line-height:1.25;font-family:sans-serif;letter-spacing:0px;word-spacing:0px;white-space:pre;shape-inside:url(#rect1327);fill:#000000;fill-opacity:1;stroke:none"
       d="m 1342.2523,433.63474 v 3.75 h -35.25 q 0.5,7.91667 4.75,12.08333 4.2917,4.125 11.9167,4.125 4.4167,0 8.5417,-1.08333 4.1666,-1.08334 8.25,-3.25 v 7.25 q -4.125,1.74999 -8.4584,2.66666 -4.3333,0.91667 -8.7916,0.91667 -11.1667,0 -17.7084,-6.5 -6.5,-6.5 -6.5,-17.58333 0,-11.45832 6.1667,-18.16666 6.2083,-6.74999 16.7083,-6.74999 9.4167,0 14.875,6.08333 5.5,6.04166 5.5,16.45832 z m -7.6666,-2.24999 q -0.083,-6.29167 -3.5417,-10.04167 -3.4167,-3.75 -9.0833,-3.75 -6.4167,0 -10.2917,3.625 -3.8333,3.625 -4.4167,10.20833 z" />
    <path
       id="path2130"
       style="font-style:normal;font-weight:normal;font-size:85.3333px;line-height:1.25;font-family:sans-serif;letter-spacing:0px;word-spacing:0px;white-space:pre;shape-inside:url(#rect1327);fill:#000000;fill-opacity:1;stroke:none"
       d="m 1411.7107,413.59309 v 7.24999 q -3.25,-1.66666 -6.75,-2.5 -3.5,-0.83333 -7.25,-0.83333 -5.7084,0 -8.5834,1.75 -2.8333,1.75 -2.8333,5.25 0,2.66666 2.0417,4.20833 2.0416,1.5 8.2083,2.875 l 2.625,0.58333 q 8.1667,1.75 11.5833,4.95833 3.4584,3.16667 3.4584,8.875 0,6.5 -5.1667,10.29166 -5.125,3.79167 -14.125,3.79167 -3.75,0 -7.8333,-0.75 -4.0417,-0.70834 -8.5417,-2.16667 v -7.91666 q 4.25,2.20833 8.375,3.33333 4.125,1.08333 8.1667,1.08333 5.4166,0 8.3333,-1.83333 2.9167,-1.875 2.9167,-5.25 0,-3.125 -2.125,-4.79166 -2.0834,-1.66667 -9.2084,-3.20833 l -2.6666,-0.625 q -7.125,-1.5 -10.2917,-4.58334 -3.1667,-3.12499 -3.1667,-8.54166 0,-6.58333 4.6667,-10.16666 4.6667,-3.58333 13.25,-3.58333 4.25,0 8,0.625 3.75,0.625 6.9167,1.875 z" />
    <path
       id="path2132"
       style="font-style:normal;font-weight:normal;font-size:85.3333px;line-height:1.25;font-family:sans-serif;letter-spacing:0px;word-spacing:0px;white-space:pre;shape-inside:url(#rect1327);fill:#000000;fill-opacity:1;stroke:none"
       d="m 1433.8356,451.88474 v 24.74999 h -7.7083 v -64.41664 h 7.7083 v 7.08333 q 2.4167,-4.16667 6.0834,-6.16667 3.7083,-2.04166 8.8333,-2.04166 8.5,0 13.7917,6.74999 5.3333,6.75 5.3333,17.75 0,10.99999 -5.3333,17.74999 -5.2917,6.75 -13.7917,6.75 -5.125,0 -8.8333,-2 -3.6667,-2.04167 -6.0834,-6.20833 z m 26.0834,-16.29166 q 0,-8.45833 -3.5,-13.25 -3.4584,-4.83333 -9.5417,-4.83333 -6.0833,0 -9.5833,4.83333 -3.4584,4.79167 -3.4584,13.25 0,8.45833 3.4584,13.29166 3.5,4.79166 9.5833,4.79166 6.0833,0 9.5417,-4.79166 3.5,-4.83333 3.5,-13.29166 z" />
    <path
       id="path2134"
       style="font-style:normal;font-weight:normal;font-size:85.3333px;line-height:1.25;font-family:sans-serif;letter-spacing:0px;word-spacing:0px;white-space:pre;shape-inside:url(#rect1327);fill:#000000;fill-opacity:1;stroke:none"
       d="m 1498.6689,417.59308 q -6.1666,0 -9.75,4.83334 -3.5833,4.79166 -3.5833,13.16666 0,8.37499 3.5417,13.20832 3.5833,4.79167 9.7916,4.79167 6.125,0 9.7084,-4.83333 3.5833,-4.83333 3.5833,-13.16666 0,-8.29167 -3.5833,-13.125 -3.5834,-4.875 -9.7084,-4.875 z m 0,-6.49999 q 10,0 15.7084,6.49999 5.7083,6.5 5.7083,18 0,11.45833 -5.7083,17.99999 -5.7084,6.5 -15.7084,6.5 -10.0416,0 -15.75,-6.5 -5.6666,-6.54166 -5.6666,-17.99999 0,-11.5 5.6666,-18 5.7084,-6.49999 15.75,-6.49999 z" />
    <path
       id="path2136"
       style="font-style:normal;font-weight:normal;font-size:85.3333px;line-height:1.25;font-family:sans-serif;letter-spacing:0px;word-spacing:0px;white-space:pre;shape-inside:url(#rect1327);fill:#000000;fill-opacity:1;stroke:none"
       d="m 1540.3773,398.96809 v 13.25 h 15.7916 v 5.95833 h -15.7916 v 25.33332 q 0,5.70833 1.5416,7.33333 1.5834,1.625 6.375,1.625 h 7.875 v 6.41666 h -7.875 q -8.875,0 -12.25,-3.29166 -3.375,-3.33333 -3.375,-12.08333 v -25.33332 h -5.625 v -5.95833 h 5.625 v -13.25 z" />
  </g>
</svg>
