<?xml version="1.0" encoding="UTF-8" standalone="no"?>
<svg
   xmlns:dc="http://purl.org/dc/elements/1.1/"
   xmlns:cc="http://creativecommons.org/ns#"
   xmlns:rdf="http://www.w3.org/1999/02/22-rdf-syntax-ns#"
   xmlns:svg="http://www.w3.org/2000/svg"
   xmlns="http://www.w3.org/2000/svg"
   xmlns:sodipodi="http://sodipodi.sourceforge.net/DTD/sodipodi-0.dtd"
   xmlns:inkscape="http://www.inkscape.org/namespaces/inkscape"
   inkscape:version="1.0 (4035a4fb49, 2020-05-01)"
   sodipodi:docname="rosaparks-mural-outlineonly.svg"
   viewBox="0 0 2449.0667 1378.1333"
   height="1378.1333"
   width="2449.0667"
   id="svg62"
   version="1.1">
  <metadata
     id="metadata68">
    <rdf:RDF>
      <cc:Work
         rdf:about="">
        <dc:format>image/svg+xml</dc:format>
        <dc:type
           rdf:resource="http://purl.org/dc/dcmitype/StillImage" />
        <dc:title></dc:title>
      </cc:Work>
    </rdf:RDF>
  </metadata>
  <defs
     id="defs66" />
  <sodipodi:namedview
     inkscape:current-layer="svg62"
     inkscape:window-maximized="1"
     inkscape:window-y="0"
     inkscape:window-x="0"
     inkscape:cy="632.02798"
     inkscape:cx="1256.0481"
     inkscape:zoom="0.45254834"
     showgrid="false"
     id="namedview64"
     inkscape:window-height="1006"
     inkscape:window-width="1920"
     inkscape:pageshadow="2"
     inkscape:pageopacity="0"
     guidetolerance="10"
     gridtolerance="10"
     objecttolerance="10"
     borderopacity="1"
     bordercolor="#666666"
     pagecolor="#ffffff" />
  <path
     id="path959"
     d="m 333.20313,205.07813 1.5625,-65.625 545.70312,-7.03125 c 0,0 50,21.09375 50,160.9375 l -163.67187,85.54687 c 0,0 -12.10938,-166.40625 -188.67188,-178.125 z"
     style="fill:none;stroke:#000000;stroke-width:1px;stroke-linecap:butt;stroke-linejoin:miter;stroke-opacity:1" />
  <path
     id="path963"
     d="m 901.17188,132.42188 c 0,0 32.03125,10.54687 38.28125,155.07812 0.39062,1.95313 217.96877,-112.5 217.96877,-112.5 0,0 4.6875,-20.3125 -10.9375,-43.35937 0,-0.39063 -245.31252,0.78125 -245.31252,0.78125 z"
     style="fill:none;stroke:#000000;stroke-width:1px;stroke-linecap:butt;stroke-linejoin:miter;stroke-opacity:1" />
  <path
     id="path965"
     d="m 1161.8164,131.25 87.5,-1.85547 -76.8555,39.64844 0.4883,-23.63281 z"
     style="fill:none;stroke:#000000;stroke-width:1px;stroke-linecap:butt;stroke-linejoin:miter;stroke-opacity:1" />
  <path
     id="path967"
     d="m 1175.8412,185.89174 -3.8669,75.40631 299.4155,-132.58252 -195.283,-0.82864 z"
     style="fill:none;stroke:#000000;stroke-width:1px;stroke-linecap:butt;stroke-linejoin:miter;stroke-opacity:1" />
  <path
     id="path969"
     d="m 1155.4688,196.48438 -210.93755,108.20312 3.90625,57.03125 209.7656,-95.3125 z"
     style="fill:none;stroke:#000000;stroke-width:1px;stroke-linecap:butt;stroke-linejoin:miter;stroke-opacity:1" />
  <path
     id="path971"
     d="M 931.64063,312.10938 767.96875,394.53125 773.04688,443.75 938.28125,373.4375 Z"
     style="fill:none;stroke:#000000;stroke-width:1px;stroke-linecap:butt;stroke-linejoin:miter;stroke-opacity:1" />
  <path
     id="path973"
     d="M 753.51563,396.09375 621.09375,469.14063 634.375,511.32813 763.67188,450 Z"
     style="fill:none;stroke:#000000;stroke-width:1px;stroke-linecap:butt;stroke-linejoin:miter;stroke-opacity:1" />
  <path
     id="path975"
     d="m 534.375,512.10938 c 0.39063,1.5625 7.03125,40.625 7.03125,40.625 l 80.07813,-34.76563 -13.28125,-40.23437 z"
     style="fill:none;stroke:#000000;stroke-width:1px;stroke-linecap:butt;stroke-linejoin:miter;stroke-opacity:1" />
  <path
     sodipodi:nodetypes="ccccc"
     id="path977"
     d="M 325.78125,458.59375 318.75,671.875 l 26.5625,-9.76562 6.02118,-31.29739 C 293.5001,588.58606 352.546,444.01436 454.66787,522.52221 l 24.63176,23.82827 c 0,0 6.56007,4.1432 4.62658,24.03058 -0.27622,0.41432 0.1381,7.87209 4.55752,13.25825 -0.41432,0.13811 12.84393,13.39636 12.84393,13.39636 0,0 1.24296,17.12524 -0.41432,27.62136 0,-0.55243 1.9335,10.2199 1.9335,10.2199 l 7.59587,0.55243 8.28641,-8.1483 3.63416,-0.035 3.71094,-26.07422 -3.51562,-22.36328 0.58593,-34.76563 -4.19921,-19.53125 c 0,0 -24.80469,-53.02734 -86.13282,-69.82422 0,-0.39062 -107.03125,3.90625 -107.03125,3.90625 z"
     style="fill:none;stroke:#000000;stroke-width:1px;stroke-linecap:butt;stroke-linejoin:miter;stroke-opacity:1" />
  <path
     id="path979"
     d="m 541.37863,567.89514 v 64.63398 l 44.7466,-7.73399 -7.73398,-18.78252 9.39126,-37.01262 90.04563,-39.77476 44.19418,4.97185 9.94369,22.09709 7.18155,11.04854 23.75437,-8.28641 1.65728,-88.94077 z"
     style="fill:none;stroke:#000000;stroke-width:1px;stroke-linecap:butt;stroke-linejoin:miter;stroke-opacity:1" />
  <path
     id="path981"
     d="m 778.36989,462.38155 0.55243,71.2631 c 0,0 58.00485,-55.79514 113.79999,-8.28641 1.10486,0.55243 49.71845,-19.33495 49.71845,-19.33495 l -4.97184,-116.56213 z"
     style="fill:none;stroke:#000000;stroke-width:1px;stroke-linecap:butt;stroke-linejoin:miter;stroke-opacity:1" />
  <path
     id="path983"
     d="m 949.06989,385.59417 3.86699,109.93301 202.74082,-67.39612 -2.2098,-138.65922 z"
     style="fill:none;stroke:#000000;stroke-width:1px;stroke-linecap:butt;stroke-linejoin:miter;stroke-opacity:1" />
  <path
     id="path985"
     d="m 1174.4602,361.28737 2.7621,51.37573 84.5214,-28.72621 1.1048,-56.9 z"
     style="fill:none;stroke:#000000;stroke-width:1px;stroke-linecap:butt;stroke-linejoin:miter;stroke-opacity:1" />
  <path
     id="path987"
     d="m 1282.1835,324.82718 0.5524,53.58543 90.0456,-34.80291 3.867,-60.21456 z"
     style="fill:none;stroke:#000000;stroke-width:1px;stroke-linecap:butt;stroke-linejoin:miter;stroke-opacity:1" />
  <path
     id="path989"
     d="m 1171.1456,282.84271 3.3146,78.44466 202.1883,-77.89223 -1.6573,-91.70291 z"
     style="fill:none;stroke:#000000;stroke-width:1px;stroke-linecap:butt;stroke-linejoin:miter;stroke-opacity:1" />
  <path
     id="path991"
     d="m 1400.4029,180.64369 -1.6573,152.4699 250.8019,-91.70291 -0.5524,-111.59029 -121.534,-2.76214 z"
     style="fill:none;stroke:#000000;stroke-width:1px;stroke-linecap:butt;stroke-linejoin:miter;stroke-opacity:1" />
  <path
     id="path993"
     d="m 1676.064,125.9534 4.9719,103.30388 293.8913,-103.85631 z"
     style="fill:none;stroke:#000000;stroke-width:1px;stroke-linecap:butt;stroke-linejoin:miter;stroke-opacity:1" />
  <path
     id="path997"
     d="m 1681.5883,261.29805 0.5524,69.0534 111.0379,-36.46019 c 0,0 55.2427,-55.79515 85.6262,-61.31942 30.3835,-5.52427 43.6418,21.54466 43.6418,21.54466 l 72.9204,-23.20194 -2.7622,-74.57767 z"
     style="fill:none;stroke:#000000;stroke-width:1px;stroke-linecap:butt;stroke-linejoin:miter;stroke-opacity:1" />
  <path
     id="path999"
     d="m 1685.5469,367.57813 0.7812,16.40625 30.4688,14.84375 55.4687,-59.375 z"
     style="fill:none;stroke:#000000;stroke-width:1px;stroke-linecap:butt;stroke-linejoin:miter;stroke-opacity:1" />
  <path
     id="path1001"
     d="m 1959.7656,278.51563 37.5,34.375 1.5625,-49.21875 z"
     style="fill:none;stroke:#000000;stroke-width:1px;stroke-linecap:butt;stroke-linejoin:miter;stroke-opacity:1" />
  <path
     id="path1003"
     d="m 1402.6126,362.39223 -4.4194,65.73883 122.0864,-104.40874 z"
     style="fill:none;stroke:#000000;stroke-width:1px;stroke-linecap:butt;stroke-linejoin:miter;stroke-opacity:1" />
  <path
     id="path1005"
     d="m 1550.1107,312.67378 101.0941,52.48058 1.1049,-87.28349 z"
     style="fill:none;stroke:#000000;stroke-width:1px;stroke-linecap:butt;stroke-linejoin:miter;stroke-opacity:1" />
  <path
     id="path1007"
     d="m 1280.1119,407.82936 c 0,0 66.015,14.36311 90.4599,52.06626 0.4143,0.13811 1.6573,-87.28349 1.6573,-87.28349 z"
     style="fill:none;stroke:#000000;stroke-width:1px;stroke-linecap:butt;stroke-linejoin:miter;stroke-opacity:1" />
  <path
     id="path1009"
     d="m 1174.4602,441.94174 -0.2762,47.78495 h 13.8106 c 0,0 10.4962,-54.41408 72.6442,-71.53932 -0.2762,0 0.8287,-7.45777 0.8287,-7.45777 z"
     style="fill:none;stroke:#000000;stroke-width:1px;stroke-linecap:butt;stroke-linejoin:miter;stroke-opacity:1" />
  <path
     id="path1011"
     d="m 1068.6704,477.02087 c 0,0 35.3553,33.14563 87.2835,26.24029 -0.2762,-0.55243 -1.1049,-53.86165 -1.1049,-53.86165 z"
     style="fill:none;stroke:#000000;stroke-width:1px;stroke-linecap:butt;stroke-linejoin:miter;stroke-opacity:1" />
  <path
     id="path1013"
     d="m 963.15678,514.86213 -3.03835,11.32475 c 0,0 -44.7466,2.76214 -52.75679,35.90777 0.55242,1.10486 -6.90534,45.29903 6.35291,69.32961 1.65728,1.9335 -15.74418,7.73398 -15.74418,7.73398 l 1.10486,-100.26553 z"
     style="fill:none;stroke:#000000;stroke-width:1px;stroke-linecap:butt;stroke-linejoin:miter;stroke-opacity:1" />
  <path
     id="path1015"
     d="m 780.5796,637.22475 5.24806,48.06116 9.66747,-2.76213 -3.59077,-11.87719 1.10485,-6.35291 -8.83883,-25.68787 z"
     style="fill:none;stroke:#000000;stroke-width:1px;stroke-linecap:butt;stroke-linejoin:miter;stroke-opacity:1" />
  <path
     id="path1017"
     d="m 745.50047,627.00484 17.67767,-3.31456 4.97185,87.55971 -69.32961,12.98204 c 0,0 -11.60097,-10.49612 46.68009,-97.22719 z"
     style="fill:none;stroke:#000000;stroke-width:1px;stroke-linecap:butt;stroke-linejoin:miter;stroke-opacity:1" />
  <path
     id="path1019"
     d="m 563.75193,649.37814 15.46796,-4.69563 c 0,0 -5.24805,40.05097 20.43981,61.04321 -0.82864,-0.82864 5.24806,6.0767 5.24806,6.0767 l -22.3733,15.19174 -16.02039,-34.25048 -3.59078,-42.26068 z"
     style="fill:none;stroke:#000000;stroke-width:1px;stroke-linecap:butt;stroke-linejoin:miter;stroke-opacity:1" />
  <path
     id="path1021"
     d="m 481.25,726.17188 50.78125,-0.39063 V 696.48438 L 513.67188,693.75 503.125,657.03125 c 0,0 -29.29687,6.25 -44.92187,28.125 1.95312,-3.125 23.04687,41.01563 23.04687,41.01563 z"
     style="fill:none;stroke:#000000;stroke-width:1px;stroke-linecap:butt;stroke-linejoin:miter;stroke-opacity:1" />
  <path
     id="path1023"
     d="m 327.03689,320.40776 135.89708,1.65728 c 0,0 129.26796,12.70583 152.4699,126.50583 1.65728,2.2097 143.63107,-65.18641 143.63107,-65.18641 0,0 -28.17379,-174.01456 -207.16019,-166.28058 7.18155,-2.76214 -218.76116,5.52427 -218.76116,5.52427 z"
     style="fill:none;stroke:#000000;stroke-width:1px;stroke-linecap:butt;stroke-linejoin:miter;stroke-opacity:1" />
  <path
     id="path1025"
     d="m 328.69417,340.29514 -2.20971,96.12233 90.04563,3.31456 c 0,0 52.48058,-4.41942 107.7233,55.79515 -1.10486,-0.55243 78.99709,-39.22233 78.99709,-39.22233 0,0 -22.09709,-112.14272 -159.65146,-118.21942 18.2301,0.55243 -114.90485,2.20971 -114.90485,2.20971 z"
     style="fill:none;stroke:#000000;stroke-width:1px;stroke-linecap:butt;stroke-linejoin:miter;stroke-opacity:1" />
  <path
     id="path1027"
     d="m 1168.9359,709.86892 69.6058,143.07864 -30.9359,102.19903 86.1786,-28.17379 36.4602,-65.18641 -9.9437,-13.25825 27.6214,-35.35534 23.7544,-21.54466 15.4679,-2.20971 c 0,0 -25.964,-33.69805 -22.0971,-44.19417 3.867,-10.49612 3.3146,-27.62136 3.3146,-27.62136 l -4.9718,-27.06893 z"
     style="fill:none;stroke:#000000;stroke-width:1px;stroke-linecap:butt;stroke-linejoin:miter;stroke-opacity:1" />
  <path
     id="path1029"
     d="m 1541.7969,675 3.125,39.0625 -8.9844,28.51563 -1.9531,14.0625 -27.3438,27.73437 23.0469,-1.95312 3.9063,14.84375 10.9375,-1.5625 45.7031,-111.32813 -2.7344,-5.85937 4.6875,-5.46875 z"
     style="fill:none;stroke:#000000;stroke-width:1px;stroke-linecap:butt;stroke-linejoin:miter;stroke-opacity:1" />
  <path
     id="path1031"
     d="m 1753.5156,653.90625 48.4375,-0.39062 4.2969,27.34375 -29.2969,8.59375 2.7344,-10.54688 L 1762.5,681.25 Z"
     style="fill:none;stroke:#000000;stroke-width:1px;stroke-linecap:butt;stroke-linejoin:miter;stroke-opacity:1" />
  <path
     id="path1033"
     d="m 1914.8438,637.10938 -10.5469,39.84375 69.1406,10.15625 c 0,0 33.2031,7.42187 39.4531,21.875 6.25,14.45312 -4.6875,-83.59375 -4.6875,-83.59375 z"
     style="fill:none;stroke:#000000;stroke-width:1px;stroke-linecap:butt;stroke-linejoin:miter;stroke-opacity:1" />
  <path
     id="path1045"
     d="m 987.73979,479.783 53.30921,-17.40145 c 0,0 -3.5908,-3.31457 -24.8592,-2.20971 -21.26846,1.10485 -28.45001,19.61116 -28.45001,19.61116 z"
     style="fill:none;stroke:#000000;stroke-width:1px;stroke-linecap:butt;stroke-linejoin:miter;stroke-opacity:1" />
  <path
     id="path1047"
     d="m 966.19513,514.86213 -1.65728,9.11505 37.01265,5.24805 c 0,0 22.3733,-24.30679 50.2708,-24.30679 0,-0.82864 29.8311,-4.97185 40.051,15.46796 0,-0.27621 39.2223,13.53446 43.918,26.5165 -0.2762,-1.65728 8.2864,9.66748 8.2864,9.66748 l 9.115,-12.70583 3.3146,-35.63155 c 0,0 -64.3578,0.27621 -91.4267,-29.27864 0.2762,0.55243 -98.88447,35.90777 -98.88447,35.90777 z"
     style="fill:none;stroke:#000000;stroke-width:1px;stroke-linecap:butt;stroke-linejoin:miter;stroke-opacity:1" />
  <path
     id="path1049"
     d="m 1173.8281,497.65625 17.5782,-4.6875 c 0,0 15.2343,-58.98437 70.7031,-70.3125 0.3906,0 0,28.125 0,28.125 l -23.8281,44.92188 -64.4532,20.3125 z"
     style="fill:none;stroke:#000000;stroke-width:1px;stroke-linecap:butt;stroke-linejoin:miter;stroke-opacity:1" />
  <path
     id="path1051"
     d="m 1281.6406,416.01563 -1.9531,26.17187 27.3438,34.375 58.9843,-13.67187 c 0,0 -32.0312,-41.40625 -84.375,-46.875 z"
     style="fill:none;stroke:#000000;stroke-width:1px;stroke-linecap:butt;stroke-linejoin:miter;stroke-opacity:1" />
  <path
     id="path1053"
     d="m 1398.8281,493.35938 52.3438,-50 c 0,0 -0.3906,-18.35938 19.1406,-19.53125 -0.7812,0.39062 17.9688,-4.29688 32.0313,15.625 0,-0.39063 35.9375,1.5625 35.9375,1.5625 l 39.0625,28.90625 76.1718,-19.92188 -1.5625,-79.6875 -105.4687,-55.85937 -20.3125,7.42187 -126.9531,112.10938 z"
     style="fill:none;stroke:#000000;stroke-width:1px;stroke-linecap:butt;stroke-linejoin:miter;stroke-opacity:1" />
  <path
     id="path1055"
     d="m 1682.4219,391.01563 v 60.15625 c 0,0 81.25,-70.70313 98.8281,-72.26563 0,-0.78125 27.7344,-19.14062 117.5781,63.67188 1.1719,0.78125 23.4375,-1.5625 23.4375,-1.5625 l 46.4844,39.0625 10.9375,16.79687 18.75,7.42188 8.5938,12.10937 -8.9844,-198.04687 -42.5781,-39.0625 -178.125,58.98437 -58.2032,64.0625 L 1682.4219,387.5 Z"
     style="fill:none;stroke:#000000;stroke-width:1px;stroke-linecap:butt;stroke-linejoin:miter;stroke-opacity:1" />
  <path
     id="path1057"
     d="m 1802.0174,290.57669 113.8,-34.25048 c 0,0 -3.8669,-22.09709 -35.3553,-22.09709 -1.1049,1.65728 -42.5369,18.78253 -78.4447,56.34757 z"
     style="fill:none;stroke:#000000;stroke-width:1px;stroke-linecap:butt;stroke-linejoin:miter;stroke-opacity:1" />
  <path
     sodipodi:nodetypes="ccccccccccccccccccccccccccccsc"
     id="path1059"
     d="m 1684.6267,453.2665 -2.2097,44.47038 c 0,0 65.7388,47.23253 72.6441,83.96894 0.2762,-0.55243 9.1151,46.68009 -10.7723,61.0432 0.2762,-0.27622 6.3529,6.0767 6.3529,6.0767 l 42.8131,-1.9335 -0.8286,-6.62912 -14.0869,0.82864 -12.7058,-31.21214 c 0,0 -8.5627,-7.45777 -6.9054,-25.13543 -0.5524,0.27621 5.5243,-5.24806 5.5243,-5.24806 l -5.8005,-14.63932 c 0,0 -2.4859,-37.01262 54.4141,-68.50097 -0.5524,0 35.0791,-14.63932 68.7772,-6.62913 -0.5525,0 15.1917,4.69563 16.5728,15.74418 -0.8287,-2.20971 9.115,3.86699 9.115,3.86699 l 7.734,8.2864 9.6675,3.03835 c 0,0 28.1738,19.61117 16.0204,48.06117 0,-0.82864 11.0485,2.20971 11.0485,2.20971 l -16.0204,58.28106 71.8156,-8.83883 -1.1049,-96.95097 -11.0485,-15.46796 -18.2301,-6.0767 -12.9821,-18.50631 -44.4704,-37.56505 -24.8592,1.10485 c 0,0 -54.7243,-55.45759 -103.5801,-67.67232 0,0 -47.5087,19.05873 -106.8946,74.02524 z"
     style="fill:none;stroke:#000000;stroke-width:1px;stroke-linecap:butt;stroke-linejoin:miter;stroke-opacity:1" />
  <path
     id="path1061"
     d="m 1399.0218,499.11795 0.2762,17.12525 170.4238,-42.81311 -35.0791,-28.45 -33.4219,0.27621 c 0,0 -14.6393,-22.09708 -30.6597,-17.95388 -16.0203,4.1432 -16.0203,16.02039 -16.0203,16.02039 z"
     style="fill:none;stroke:#000000;stroke-width:1px;stroke-linecap:butt;stroke-linejoin:miter;stroke-opacity:1" />
  <path
     id="path1063"
     d="m 1370.2956,492.76504 -33.9743,8.01019 32.8695,36.73641 z"
     style="fill:none;stroke:#000000;stroke-width:1px;stroke-linecap:butt;stroke-linejoin:miter;stroke-opacity:1" />
  <path
     id="path1065"
     d="m 1398.0469,545.70313 259.375,-67.1875 0.3906,16.40625 -54.6875,12.89062 c 0,0 -53.125,27.73438 -39.4531,101.95313 -0.3906,-1.5625 4.6875,9.375 4.6875,9.375 l -6.6406,41.40625 c 0,0 -53.5157,-52.73438 -73.8282,-54.6875 0.7813,-0.39063 -7.8125,-10.9375 -7.8125,-10.9375 l -34.7656,-18.35938 -27.7344,8.20313 -17.1875,-19.14063 z"
     style="fill:none;stroke:#000000;stroke-width:1px;stroke-linecap:butt;stroke-linejoin:miter;stroke-opacity:1" />
  <path
     id="path1067"
     d="m 1175.8412,544.14077 38.9462,-10.77233 -38.6699,72.09174 z"
     style="fill:none;stroke:#000000;stroke-width:1px;stroke-linecap:butt;stroke-linejoin:miter;stroke-opacity:1" />
  <path
     id="path1069"
     d="m 1176.1175,686.66698 3.8669,19.33495 82.8641,-8.83884 -2.7621,-24.30679 z"
     style="fill:none;stroke:#000000;stroke-width:1px;stroke-linecap:butt;stroke-linejoin:miter;stroke-opacity:1" />
  <path
     id="path1071"
     d="m 1285.498,673.40873 3.3146,22.64951 64.0816,-10.49612 -1.6573,-20.4398 z"
     style="fill:none;stroke:#000000;stroke-width:1px;stroke-linecap:butt;stroke-linejoin:miter;stroke-opacity:1" />
  <path
     id="path1073"
     d="m 1266.4393,674.09926 -0.5524,23.61626 13.5344,-0.82864 1.243,-25.68786 -13.9488,1.24296 z"
     style="fill:none;stroke:#000000;stroke-width:1px;stroke-linecap:butt;stroke-linejoin:miter;stroke-opacity:1" />
  <path
     id="path1075"
     d="m 1218.9306,531.43494 -42.8131,78.16845 v 70.98689 l 173.1859,-20.16359 0.8286,-41.98447 6.3529,-12.1534 6.6292,6.35292 6.9053,1.93349 V 542.7597 l -38.3937,-41.70825 z"
     style="fill:none;stroke:#000000;stroke-width:1px;stroke-linecap:butt;stroke-linejoin:miter;stroke-opacity:1" />
  <path
     id="path1077"
     d="m 1270.5825,440.83689 -29.5549,55.79514 63.8054,-15.74417 z"
     style="fill:none;stroke:#000000;stroke-width:1px;stroke-linecap:butt;stroke-linejoin:miter;stroke-opacity:1" />
  <path
     id="path1079"
     d="m 1401.784,573.41941 9.6674,19.61116 -8.5626,4.14321 -5.8005,-8.28641 v -22.09709 z"
     style="fill:none;stroke:#000000;stroke-width:1px;stroke-linecap:butt;stroke-linejoin:miter;stroke-opacity:1" />
  <path
     id="path1081"
     d="m 1154.2969,648.24219 -18.1641,36.71875 15.4297,0.58594 4.1016,-19.53125 z"
     style="fill:none;stroke:#000000;stroke-width:1px;stroke-linecap:butt;stroke-linejoin:miter;stroke-opacity:1" />
  <path
     id="path1083"
     d="m 1264.0915,444.56577 7.3196,-9.66748 5.6624,5.9386 -0.1381,-32.31699 -12.4296,2.2097 z"
     style="fill:none;stroke:#000000;stroke-width:1px;stroke-linecap:butt;stroke-linejoin:miter;stroke-opacity:1" />
  <path
     id="path1085"
     d="m 1263.8153,385.59417 15.0536,-4.14321 1.243,-58.41917 -15.3299,4.55753 z"
     style="fill:none;stroke:#000000;stroke-width:1px;stroke-linecap:butt;stroke-linejoin:miter;stroke-opacity:1" />
  <path
     id="path1087"
     d="m 1093.5296,682.24756 c 0,0 33.6981,7.45777 39.2223,-2.76213 -0.2762,1.65728 22.0971,-37.28884 22.0971,-37.28884 l 1.1049,-96.39854 -11.0486,14.91553 -7.4577,-9.39126 -14.6394,14.36311 c 0,0 23.7544,36.7364 -4.9718,63.52912 0,0.55243 -5.2481,25.41165 -5.2481,25.41165 l -12.1534,16.02039 z"
     style="fill:none;stroke:#000000;stroke-width:1px;stroke-linecap:butt;stroke-linejoin:miter;stroke-opacity:1" />
  <path
     id="path1089"
     d="m 355.46875,636.71875 37.10938,13.67188 7.8125,21.875 17.57812,8.98437 2.34375,8.59375 14.45313,8.59375 19.53125,-11.32812 c 0,0 -3.125,-14.84375 48.4375,-33.98438 0,-1.5625 -3.51563,-22.65625 -3.51563,-22.65625 l 0.39063,-28.125 -16.79688,-20.3125 -4.29687,-30.85937 -32.42188,-30.85938 c 0,0 -40.23437,-30.85937 -67.1875,-11.71875 0,1.17188 -35.9375,8.98438 -45.70312,64.45313 0,-0.39063 -5.85938,28.90625 20.70312,53.51562 -1.95312,-1.17187 1.5625,10.15625 1.5625,10.15625 z"
     style="fill:none;stroke:#000000;stroke-width:1px;stroke-linecap:butt;stroke-linejoin:miter;stroke-opacity:1" />
  <path
     id="path1091"
     d="m 354.93446,641.36795 -5.24806,24.58301 -30.65971,8.83883 -9.66747,442.21791 68.50097,74.0253 -18.78253,60.767 155.78447,3.3145 18.78252,-66.2912 -59.66213,-124.8486 100.54174,33.1457 54.13786,156.8893 201.0835,4.4194 c 0,0 5.52427,-48.6136 -104.96117,-34.2505 2.20971,0 33.14563,-34.2505 33.14563,-34.2505 l -57.45242,-132.5825 -37.56505,-45.299 -66.29126,-25.41167 -1.30885,-3.23649 7.8125,-1.95312 1.95313,-6.05469 -3.125,-6.64063 4.29687,-4.6875 v -2.92968 l -3.90625,-4.29688 5.46875,-4.6875 0.19532,-5.66406 -1.75782,-2.92969 0.19532,-8.78906 -3.71094,-3.71094 -10.15625,0.19531 -4.49219,0.97657 -8.98437,-11.13282 -50.19532,5.66407 -19.01597,-4.75686 1.65728,-10.49612 -18.78252,-2.76214 -2.20971,-32.5932 c 0,0 67.94854,23.75437 75.68252,38.6699 0,1.10486 30.93593,13.81068 30.93593,13.81068 l 37.56504,-49.16602 -48.61359,-144.73592 -24.85922,-38.6699 -1.30507,-51.33167 -4.29687,-4.49219 -4.88282,2.14844 -1.95312,-5.46875 -5.27344,-0.97657 -2.14844,1.17188 -3.32031,4.29687 -0.19531,-9.96093 -4.88281,-0.19532 -4.49219,1.17188 -1.36719,-3.51563 -7.03125,0.58594 -5.07813,10.15625 -8.78906,-2.34375 -3.125,1.75781 2.14844,13.28125 8.98437,38.28125 19.92188,3.90625 0.39063,31.64063 -7.61719,4.10156 10.83473,72.95567 -54.41408,-35.35534 -2.20971,-35.35534 -23.75437,-42.8131 -21.82087,11.87718 -18.78253,-10.49611 -1.93349,-7.18156 -16.02039,-8.83883 -8.56262,-22.3733 z"
     style="fill:none;stroke:#000000;stroke-width:1px;stroke-linecap:butt;stroke-linejoin:miter;stroke-opacity:1" />
  <path
     id="path1093"
     d="m 483.92621,729.20387 39.22232,0.82864 12.1534,65.73884 -48.8898,-29.83107 z"
     style="fill:none;stroke:#000000;stroke-width:1px;stroke-linecap:butt;stroke-linejoin:miter;stroke-opacity:1" />
  <path
     id="path1095"
     d="m 309.375,1125.7813 48.4375,47.6562 -50,-1.5625 z"
     style="fill:none;stroke:#000000;stroke-width:1px;stroke-linecap:butt;stroke-linejoin:miter;stroke-opacity:1" />
  <path
     id="path1097"
     d="m 306.32087,1178.3272 0.82864,15.4679 64.08155,3.0384 -11.32476,-17.6777 z"
     style="fill:none;stroke:#000000;stroke-width:1px;stroke-linecap:butt;stroke-linejoin:miter;stroke-opacity:1" />
  <path
     id="path1099"
     d="m 306.32087,1201.8053 1.10485,48.3374 44.19418,3.5908 17.67767,-52.7568 z"
     style="fill:none;stroke:#000000;stroke-width:1px;stroke-linecap:butt;stroke-linejoin:miter;stroke-opacity:1" />
  <path
     id="path1103"
     d="m 535.30193,1200.7005 66.84369,-1.3811 20.99223,55.2427 -104.40873,0.2762 z"
     style="fill:none;stroke:#000000;stroke-width:1px;stroke-linecap:butt;stroke-linejoin:miter;stroke-opacity:1" />
  <path
     id="path1105"
     d="m 533.36844,1178.3272 6.35291,9.3912 -3.31456,8.2864 65.73883,-0.8286 -4.1432,-19.335 z"
     style="fill:none;stroke:#000000;stroke-width:1px;stroke-linecap:butt;stroke-linejoin:miter;stroke-opacity:1" />
  <path
     id="path1107"
     d="m 481.16407,1071.4325 50.8233,102.199 65.18641,-1.6572 -25.96408,-73.1966 z"
     style="fill:none;stroke:#000000;stroke-width:1px;stroke-linecap:butt;stroke-linejoin:miter;stroke-opacity:1" />
  <path
     id="path1109"
     d="m 791.21094,1220.1172 -0.39062,-32.4219 -47.07032,-35.9375 -11.13281,-27.539 65.42969,46.4843 91.60156,0.3907 -3.125,20.1171 -76.5625,-3.7109 v 38.8672 z"
     style="fill:none;stroke:#000000;stroke-width:1px;stroke-linecap:butt;stroke-linejoin:miter;stroke-opacity:1" />
  <path
     id="path1111"
     d="m 812.89659,1191.5854 -0.27622,33.9743 c 0,0 14.0869,8.8388 21.26845,28.1738 -0.27621,-0.5525 52.20437,1.1048 52.20437,1.1048 v -58.281 z"
     style="fill:none;stroke:#000000;stroke-width:1px;stroke-linecap:butt;stroke-linejoin:miter;stroke-opacity:1" />
  <path
     id="path1113"
     d="m 733.8995,1219.6211 c 0,0 45.71335,-1.9335 54.13787,0.6905 -0.13811,-0.5524 0.82864,-30.7978 0.82864,-30.7978 l -42.81311,-33.1456 16.02039,33.8361 z"
     style="fill:none;stroke:#000000;stroke-width:1px;stroke-linecap:butt;stroke-linejoin:miter;stroke-opacity:1" />
  <path
     id="path1115"
     d="m 714.84076,1081.9286 21.26845,15.468 64.08155,8.8388 65.73884,6.3529 c 0,0 28.17378,21.5447 42.53689,18.7826 -0.27621,-0.2763 -16.02039,23.7543 -16.02039,23.7543 l -0.82864,10.7724 -91.70291,2.2097 -70.15825,-48.8898 z"
     style="fill:none;stroke:#000000;stroke-width:1px;stroke-linecap:butt;stroke-linejoin:miter;stroke-opacity:1" />
  <path
     id="path1117"
     d="m 950.03664,1170.5932 -0.41433,16.9871 h 12.98204 l -0.82864,-18.092 z"
     style="fill:none;stroke:#000000;stroke-width:1px;stroke-linecap:butt;stroke-linejoin:miter;stroke-opacity:1" />
  <path
     id="path1119"
     d="m 966.33324,1108.8594 3.86699,16.0204 -7.73398,25.9641 -1.24296,7.5959 1.24296,8.4245 -12.29151,0.2762 1.79539,-16.849 6.49102,-20.8541 5.80048,-8.7008 z"
     style="fill:none;stroke:#000000;stroke-width:1px;stroke-linecap:butt;stroke-linejoin:miter;stroke-opacity:1" />
  <path
     id="path1121"
     d="m 947.68882,1191.7235 h 16.57281 l 2.90025,64.2197 -30.10728,0.6905 11.32475,-64.7721 z"
     style="fill:none;stroke:#000000;stroke-width:1px;stroke-linecap:butt;stroke-linejoin:miter;stroke-opacity:1" />
  <path
     id="path1123"
     d="m 1000.7813,1258.0078 29.6875,0.3906 1.1718,-12.1093 c 0,0 -14.6484,-8.7891 -8.0078,-17.5782 -0.3906,-0.1953 10.3516,-12.5 28.125,-9.7656 -0.5859,-0.1953 31.0547,-8.9844 31.0547,-8.9844 l 7.8125,-16.9921 -75,-2.3438 z"
     style="fill:none;stroke:#000000;stroke-width:1px;stroke-linecap:butt;stroke-linejoin:miter;stroke-opacity:1" />
  <path
     id="path1125"
     d="m 1019.9219,1174.4141 -3.711,12.1093 73.8282,3.3204 5.2734,-8.2032 -27.3437,-8.3984 z"
     style="fill:none;stroke:#000000;stroke-width:1px;stroke-linecap:butt;stroke-linejoin:miter;stroke-opacity:1" />
  <path
     id="path1127"
     d="m 1030.6641,1107.8125 0.5859,9.5703 -10.7422,52.3438 48.6328,0.1953 27.7344,8.5937 57.8125,-85.5468 -37.1094,10.7421 -6.6406,19.9219 -63.6719,-24.414 z"
     style="fill:none;stroke:#000000;stroke-width:1px;stroke-linecap:butt;stroke-linejoin:miter;stroke-opacity:1" />
  <path
     id="path1129"
     d="m 1171.9743,1218.6543 25.4116,8.0102 -12.982,31.4884 -32.0408,1.3811 19.0587,-38.9462 z"
     style="fill:none;stroke:#000000;stroke-width:1px;stroke-linecap:butt;stroke-linejoin:miter;stroke-opacity:1" />
  <path
     id="path1131"
     d="m 1180.2607,1200.4243 -4.6957,12.982 24.8593,9.115 9.115,-6.6291 z"
     style="fill:none;stroke:#000000;stroke-width:1px;stroke-linecap:butt;stroke-linejoin:miter;stroke-opacity:1" />
  <path
     id="path1133"
     d="m 1272.516,1121.4272 c -1.1049,0.5524 -35.9078,15.4679 -35.9078,15.4679 l -2.2097,10.2199 c 0,0 -35.9077,48.8898 -48.8898,48.3374 -0.8286,0.2762 24.583,14.9155 24.583,14.9155 0,0 40.6034,-74.3014 70.9869,-79.2733 -0.8286,-0.2762 -8.5626,-9.6674 -8.5626,-9.6674 z"
     style="fill:none;stroke:#000000;stroke-width:1px;stroke-linecap:butt;stroke-linejoin:miter;stroke-opacity:1" />
  <path
     id="path1135"
     d="m 1515.625,1190.2344 -35.9375,68.3594 141.7969,-2.7344 -0.7813,-27.3438 z"
     style="fill:none;stroke:#000000;stroke-width:1px;stroke-linecap:butt;stroke-linejoin:miter;stroke-opacity:1" />
  <path
     id="path1137"
     d="m 1617.1875,1163.6719 c 0,0 -85.9375,9.375 -97.6562,21.0937 -0.3907,2.3438 99.2187,37.8907 99.2187,37.8907 z"
     style="fill:none;stroke:#000000;stroke-width:1px;stroke-linecap:butt;stroke-linejoin:miter;stroke-opacity:1" />
  <path
     id="path1139"
     d="m 1641.7969,1161.3281 7.4219,56.25 57.8125,-26.5625 z"
     style="fill:none;stroke:#000000;stroke-width:1px;stroke-linecap:butt;stroke-linejoin:miter;stroke-opacity:1" />
  <path
     id="path1141"
     d="m 1647.6563,1225 2.3437,32.4219 h 33.9844 l 72.2656,-33.5938 -48.4375,-26.9531 z"
     style="fill:none;stroke:#000000;stroke-width:1px;stroke-linecap:butt;stroke-linejoin:miter;stroke-opacity:1" />
  <path
     id="path1143"
     d="m 1833.9844,1259.375 -73.4375,-34.7656 -73.0469,35.1562 z"
     style="fill:none;stroke:#000000;stroke-width:1px;stroke-linecap:butt;stroke-linejoin:miter;stroke-opacity:1" />
  <path
     id="path1145"
     d="m 1668.75,1053.9063 -41.7969,24.2187 13.6719,5.4688 c 0,0 -3.9062,39.4531 -22.2656,41.7968 0.7812,1.1719 6.25,133.2032 6.25,133.2032 l 21.4844,1.5625 -5.0782,-166.4063 c 0,0 9.7657,-22.2656 31.6407,-17.1875 -2.3438,0.7813 -1.1719,70.3125 -1.1719,70.3125 l -24.2188,10.9375 194.5313,103.125 h 134.7656 l 12.8906,-27.7344 -8.5937,-1.1718 -101.9531,27.7343 -191.4063,-99.2187 -8.5937,-369.14065 c 0,0 -4.6875,-52.34375 28.9062,-55.46875 -1.1719,1.17188 4.2969,0 4.2969,0 l 0.3906,-7.8125 -23.0469,2.34375 -8.9843,6.64063 -7.0313,24.60937 -5.8594,40.625 2.3438,166.79688 5.4687,81.24997 z"
     style="fill:none;stroke:#000000;stroke-width:1px;stroke-linecap:butt;stroke-linejoin:miter;stroke-opacity:1" />
  <path
     id="path1147"
     d="m 1881.25,1196.0938 -3.125,58.5937 101.9531,-27.3437 10.5469,1.5625 11.3281,-17.1875 z"
     style="fill:none;stroke:#000000;stroke-width:1px;stroke-linecap:butt;stroke-linejoin:miter;stroke-opacity:1" />
  <path
     id="path1149"
     d="m 1753.125,1094.1406 -61.7187,29.2969 76.9531,16.4063 z"
     style="fill:none;stroke:#000000;stroke-width:1px;stroke-linecap:butt;stroke-linejoin:miter;stroke-opacity:1" />
  <path
     id="path1151"
     d="m 1687.8906,1116.7969 c 0,0 39.8438,-64.0625 26.1719,-80.0781 0,1.1718 -21.4844,-0.7813 -21.4844,-0.7813 l -5.8593,-21.0937 z"
     style="fill:none;stroke:#000000;stroke-width:1px;stroke-linecap:butt;stroke-linejoin:miter;stroke-opacity:1" />
  <path
     id="path1153"
     d="m 1875.7813,1191.0156 c 0,0 -82.4219,-23.4375 -100.3907,-45.7031 -0.3906,0.3906 -84.7656,-17.9687 -84.7656,-17.9687 v 29.2968 l 183.9844,96.0938 z"
     style="fill:none;stroke:#000000;stroke-width:1px;stroke-linecap:butt;stroke-linejoin:miter;stroke-opacity:1" />
  <path
     id="path1155"
     d="m 1717.9688,1032.4219 19.9218,-2.3438 c 0,0 5.8594,57.8125 20.3125,60.5469 -1.5625,0 -69.9218,30.4688 -69.9218,30.4688 0,0 46.0937,-66.7969 29.6875,-88.6719 z"
     style="fill:none;stroke:#000000;stroke-width:1px;stroke-linecap:butt;stroke-linejoin:miter;stroke-opacity:1" />
  <path
     id="path1157"
     d="m 1992.6048,1043.5349 24.8592,0.5525 2.2098,17.9538 c 0,0 -20.7161,-9.115 -27.069,-18.5063 z"
     style="fill:none;stroke:#000000;stroke-width:1px;stroke-linecap:butt;stroke-linejoin:miter;stroke-opacity:1" />
  <path
     id="path1159"
     d="m 1953.6587,1057.0694 c 0,0 42.8131,41.1558 67.3961,45.0228 -0.5524,0 1.9335,156.0607 1.9335,156.0607 h -41.7082 l 26.2403,-49.4422 -120.9816,-18.2301 c 0,0 -89.7694,-24.3068 -106.8947,-46.9563 0,-0.2763 -18.7825,-49.1661 -18.7825,-49.1661 0,0 46.6801,-35.6315 140.5927,-25.4116 0,0.5524 52.2044,-11.8772 52.2044,-11.8772 z"
     style="fill:none;stroke:#000000;stroke-width:1px;stroke-linecap:butt;stroke-linejoin:miter;stroke-opacity:1" />
  <path
     id="path1163"
     d="m 2013.5971,820.90678 c 0,0 -69.6059,7.73398 -96.1224,121.53398 0,1.10485 12.1534,-12.1534 23.202,-9.94369 -1.6573,-0.55243 20.9922,-68.50097 41.432,-72.92039 1.1049,0.55243 30.3835,46.40389 30.3835,46.40389 l 4.4194,-19.33495 -21.5446,-36.4602 19.3349,-6.0767 z"
     style="fill:none;stroke:#000000;stroke-width:1px;stroke-linecap:butt;stroke-linejoin:miter;stroke-opacity:1" />
  <path
     id="path1165"
     d="m 2018.0165,982.21552 -45.8515,43.08928 c 0,0 -14.9155,-15.4679 -20.4398,-29.83103 -1.1048,1.65728 -14.3631,-8.83884 -14.3631,-8.83884 l -10.4961,16.02037 c 0,0 18.7825,64.634 93.9126,93.3602 0,1.6573 -1.1048,-27.6213 -1.1048,-27.6213 0,0 -43.0894,-25.4117 -37.0127,-27.6214 -1.1048,0 34.8029,-34.8029 34.8029,-34.8029 z"
     style="fill:none;stroke:#000000;stroke-width:1px;stroke-linecap:butt;stroke-linejoin:miter;stroke-opacity:1" />
  <path
     id="path1167"
     d="m 678.10436,531.98737 -88.38835,39.49854 -8.56262,32.86942 8.56262,16.02039 c 0,0 -29.27864,52.75679 22.64951,91.4267 l -26.24029,16.02038 52.54665,151.47408 -35.54688,47.26562 7.8125,7.8125 -3.51562,48.04688 54.6875,25.39062 L 672.26563,1000 657.03125,986.71875 660.54688,744.14063 693.75,715.23438 725.78125,650 746.875,622.65625 l -7.03125,-50.39062 -20.3125,-32.8125 z"
     style="fill:none;stroke:#000000;stroke-width:1px;stroke-linecap:butt;stroke-linejoin:miter;stroke-opacity:1" />
  <path
     id="path1169"
     d="m 757.42188,580.85938 -10.54688,5.85937 v 35.9375 l 16.40625,-3.125 -0.39062,-35.15625 z"
     style="fill:none;stroke:#000000;stroke-width:1px;stroke-linecap:butt;stroke-linejoin:miter;stroke-opacity:1" />
  <path
     id="path1171"
     d="m 696.88688,726.99416 -1.93349,-8.2864 c 0,0 -24.03059,15.46796 -29.00243,26.24029 1.65728,-1.9335 -6.0767,240.85824 -6.0767,240.85824 l 9.11505,7.73398 0.55243,-50.8233 -6.35292,-14.63932 1.10486,-16.2966 3.31456,-4.97184 2.20971,-52.48058 0.82864,-91.15049 c 0,0 -1.93349,-17.67767 26.24029,-36.18398 z"
     style="fill:none;stroke:#000000;stroke-width:1px;stroke-linecap:butt;stroke-linejoin:miter;stroke-opacity:1" />
  <path
     id="path1173"
     d="m 760.55411,1098.6395 -9.52936,-8.8388 -21.54466,-3.7289 -13.07384,-35.0952 -14.0625,0.3906 2.92969,-37.6953 9.17969,-8.0078 2.14844,-44.33597 -42.96875,-21.67969 c 0,0 -15.625,-10.54687 2.34375,-41.40625 0.19531,0.19531 9.76562,-21.28906 9.76562,-21.28906 l -3.32031,-49.41406 7.22656,-1.36719 -2.53906,-37.89063 -13.67188,-17.1875 -3.51562,133.00782 c 0,0 -9.96094,27.53906 1.5625,38.28125 0.19531,0 -2.49507,51.15745 -2.49507,51.15745 l 8.15913,6.06911 -11.32812,10.54692 33.20312,42.1875 12.89063,24.414 24.21875,18.3594 z"
     style="fill:none;stroke:#000000;stroke-width:1px;stroke-linecap:butt;stroke-linejoin:miter;stroke-opacity:1" />
  <path
     id="path1175"
     d="m 779.75096,539.72135 -4.97185,40.32718 -1.38106,13.25826 -3.59078,7.18155 1.38107,19.05874 6.62912,11.60097 9.66748,7.18155 8.83883,24.03058 -1.79538,8.0102 20.31536,11.27025 c 0,0 35.9375,3.51562 44.92188,1.95312 -1.5625,0 36.71875,-33.59375 33.59375,-41.40625 0,1.17188 3.51562,-96.09375 3.51562,-96.09375 0,0 -2.34375,-28.51562 -52.73437,-37.89062 -2.34375,-0.39063 -51.43559,7.17707 -64.38967,31.51822 z"
     style="fill:none;stroke:#000000;stroke-width:1px;stroke-linecap:butt;stroke-linejoin:miter;stroke-opacity:1" />
  <path
     id="path1177"
     d="m 802.34375,682.03125 c 0,0 61.71875,8.20313 69.92188,13.28125 -0.78125,0 31.25,19.14063 31.25,19.14063 l 12.5,8.59375 28.51562,0.78125 33.98438,57.8125 -29.29688,8.59375 L 950,931.25 l 10.9375,8.59375 c 0,0 -7.42187,36.71875 -4.29687,56.25 0.78125,-1.95312 40.23437,79.68755 40.23437,79.68755 0,0 23.8281,25 26.1719,30.4687 1.1719,-1.9531 5.4687,7.4219 5.4687,7.4219 l -32.03122,144.5312 -25,-1.1718 -7.03125,-101.5625 9.76562,-33.9844 -7.8125,-17.9688 -5.85937,13.6719 -9.76563,22.2656 -4.6875,39.0625 -13.67187,80.8594 -41.40625,-0.7812 2.73437,-88.6719 1.17188,-11.7188 18.75,-27.7343 c 0,0 -35.54688,-6.6407 -46.09375,-21.875 0.78125,0.3906 -102.34375,-10.9375 -102.34375,-10.9375 l -10.15625,-12.8907 -21.875,-1.1718 -13.67188,-37.5 -13.28125,1.9531 1.5625,-30.8594 10.15625,-9.375 2.34375,-49.60937 -46.09375,-23.4375 c 0,0 -5.85937,-13.67188 -3.125,-17.96875 0,1.5625 12.10938,-31.25 17.96875,-36.32813 -0.39062,0.39063 -3.125,-49.21875 -3.125,-49.21875 l 3.71094,-5.07812 1.75781,-41.01563 -17.57812,-18.75 c 0,0 -3.125,-34.375 41.79687,-41.01562 0,-0.78125 53.90625,-8.20313 53.90625,-8.20313 0,0 -1.95312,-22.65625 32.8125,-35.15625 z"
     style="fill:none;stroke:#000000;stroke-width:1px;stroke-linecap:butt;stroke-linejoin:miter;stroke-opacity:1" />
  <path
     id="path1179"
     d="m 912.33348,637.77717 -15.19175,4.14321 -32.5932,44.47039 20.4398,9.39126 38.11748,-6.62913 36.73641,1.38107 c 0,0 42.26068,-24.03058 43.91798,-31.76456 0.2762,-0.55243 -20.71604,-54.69029 -20.71604,-54.69029 l 10.49611,-43.91796 -2.48592,-15.46797 8.83884,-10.2199 c 0,0 -40.32719,-12.70582 -69.0534,3.31457 0.55243,-1.38107 -36.18398,9.94368 -19.33495,80.10194 -1.10486,-5.52428 6.90534,17.12524 6.90534,17.12524 z"
     style="fill:none;stroke:#000000;stroke-width:1px;stroke-linecap:butt;stroke-linejoin:miter;stroke-opacity:1" />
  <path
     id="path1181"
     d="m 1045.4684,509.33786 c 0,0 20.1636,-11.87719 40.6034,11.04854 -0.2762,0.27621 44.4704,19.88738 46.6801,27.89757 -0.5524,-1.65728 -13.8107,14.91554 -13.8107,14.91554 0,0 17.4015,35.90776 -2.7621,61.59563 3.867,-2.48593 -18.7825,52.20436 -26.5165,55.51893 1.1049,0.27621 -14.6393,14.3631 -14.6393,14.3631 l -27.3452,4.69563 -24.8592,-20.71602 -12.7058,-19.05873 -23.75438,-54.96651 8.28641,-30.93592 -0.55243,-28.17378 17.4015,-21.26845 20.9922,-13.53447 z"
     style="fill:none;stroke:#000000;stroke-width:1px;stroke-linecap:butt;stroke-linejoin:miter;stroke-opacity:1" />
  <path
     id="path1183"
     d="m 894.3796,697.99174 11.87718,4.41941 18.78253,-8.56262 20.71601,-0.82864 6.90534,9.11505 53.58544,-16.84903 22.6495,28.45 33.6981,12.42961 33.4218,-14.63932 -0.5524,-19.61116 c 0,0 18.2301,-4.41942 41.7082,1.93349 -3.3145,-0.27621 22.9258,7.45777 22.9258,7.45777 l 73.4728,156.06068 -32.0408,96.12232 1.6573,7.73398 -48.0612,32.04078 -4.4194,32.04074 16.0204,13.8107 40.8796,-24.8592 94.4651,-13.8107 -4.9719,9.9437 -135.3447,70.1583 -1.6572,6.0767 -42.8131,11.6009 -8.0102,17.4015 -62.1481,-20.9923 -19.0587,6.6292 -67.67236,-109.10439 2.20971,-56.62379 -9.11505,-6.0767 -0.82864,-135.06844 32.04078,-12.70583 -35.07913,-59.93835 -33.69805,-2.2097 -22.64952,-15.19175 z"
     style="fill:none;stroke:#000000;stroke-width:1px;stroke-linecap:butt;stroke-linejoin:miter;stroke-opacity:1" />
  <path
     id="path1185"
     d="m 641.79688,463.67188 11.13281,15.82031 35.9375,-7.42188 1.36719,-29.49218 z"
     style="fill:none;stroke:#000000;stroke-width:1px;stroke-linecap:butt;stroke-linejoin:miter;stroke-opacity:1" />
  <path
     id="path1187"
     d="m 628.93834,484.89295 1.38107,4.41942 6.62912,-3.31456 -1.79538,-4.83374 z"
     style="fill:none;stroke:#000000;stroke-width:1px;stroke-linecap:butt;stroke-linejoin:miter;stroke-opacity:1" />
  <path
     id="path1189"
     d="m 650.89732,481.23312 -12.36056,4.62658 -2.62403,-6.28386 8.21736,-10.15085 z"
     style="fill:none;stroke:#000000;stroke-width:1px;stroke-linecap:butt;stroke-linejoin:miter;stroke-opacity:1" />
  <path
     id="path1191"
     d="m 636.87948,467.76771 1.72634,5.52427 4.35036,-4.48847 -1.72634,-3.65983 z"
     style="fill:none;stroke:#000000;stroke-width:1px;stroke-linecap:butt;stroke-linejoin:miter;stroke-opacity:1" />
  <path
     id="path1193"
     d="m 636.11989,462.24344 1.72634,3.17646 7.18155,-4.76469 -0.75959,-3.24551 z"
     style="fill:none;stroke:#000000;stroke-width:1px;stroke-linecap:butt;stroke-linejoin:miter;stroke-opacity:1" />
  <path
     id="path1195"
     d="m 631.14805,464.79842 -0.27622,3.45266 5.59333,-2.0716 -1.86444,-3.59077 z"
     style="fill:none;stroke:#000000;stroke-width:1px;stroke-linecap:butt;stroke-linejoin:miter;stroke-opacity:1" />
  <path
     id="path1197"
     d="m 625.62378,471.15133 4.35036,-4.21226 0.069,-1.79539 -7.87208,4.83374 z"
     style="fill:none;stroke:#000000;stroke-width:1px;stroke-linecap:butt;stroke-linejoin:miter;stroke-opacity:1" />
  <path
     id="path1199"
     d="m 624.03555,474.05157 11.87718,-5.73143 1.79539,5.66238 -2.90024,5.38616 -6.83629,3.93605 z"
     style="fill:none;stroke:#000000;stroke-width:1px;stroke-linecap:butt;stroke-linejoin:miter;stroke-opacity:1" />
  <path
     id="path1201"
     d="m 631.14805,490.34817 24.4449,-8.90789 3.24551,16.84903 -23.96153,11.39381 z"
     style="fill:none;stroke:#000000;stroke-width:1px;stroke-linecap:butt;stroke-linejoin:miter;stroke-opacity:1" />
  <path
     id="path1203"
     d="m 664.22463,478.40193 c -0.0691,0.41432 0.55242,4.48848 0.55242,4.48848 l 2.34782,-0.34527 4.62658,-4.0051 z"
     style="fill:none;stroke:#000000;stroke-width:1px;stroke-linecap:butt;stroke-linejoin:miter;stroke-opacity:1" />
  <path
     id="path1205"
     d="m 666.64149,484.54769 5.45522,1.51917 -2.20971,-5.0409 z"
     style="fill:none;stroke:#000000;stroke-width:1px;stroke-linecap:butt;stroke-linejoin:miter;stroke-opacity:1" />
  <path
     id="path1207"
     d="m 661.46249,485.03106 4.35036,3.03835 1.58823,-1.45012 -4.1432,-3.52172 z"
     style="fill:none;stroke:#000000;stroke-width:1px;stroke-linecap:butt;stroke-linejoin:miter;stroke-opacity:1" />
  <path
     id="path1209"
     d="m 657.94077,485.37633 1.1739,6.97439 6.76724,-2.90024 z"
     style="fill:none;stroke:#000000;stroke-width:1px;stroke-linecap:butt;stroke-linejoin:miter;stroke-opacity:1" />
  <path
     id="path1211"
     d="m 659.87426,497.87499 7.04345,-3.31456 -2.55498,-3.17646 -4.97184,1.79539 z"
     style="fill:none;stroke:#000000;stroke-width:1px;stroke-linecap:butt;stroke-linejoin:miter;stroke-opacity:1" />
  <path
     id="path1213"
     d="m 676.9995,489.45048 -1.65728,-2.83119 -2.27876,-0.20716 -4.07415,0.48337 -1.58823,1.86444 -0.89769,2.14066 1.17391,2.62403 z"
     style="fill:none;stroke:#000000;stroke-width:1px;stroke-linecap:butt;stroke-linejoin:miter;stroke-opacity:1" />
  <path
     id="path1215"
     d="m 674.99696,475.50169 v 9.39126 l 2.96929,3.93605 8.70073,-3.45267 3.59078,-7.04345 -1.45013,-4.41942 z"
     style="fill:none;stroke:#000000;stroke-width:1px;stroke-linecap:butt;stroke-linejoin:miter;stroke-opacity:1" />
  <path
     id="path1217"
     d="m 693.43421,473.22293 -3.45267,-0.55243 -0.55242,0.75959 1.31201,3.45267 2.62403,-2.20971 z"
     style="fill:none;stroke:#000000;stroke-width:1px;stroke-linecap:butt;stroke-linejoin:miter;stroke-opacity:1" />
  <path
     id="path1219"
     d="m 691.70788,482.54514 2.55497,-1.45012 -0.82864,-5.31711 -2.69308,1.10485 z"
     style="fill:none;stroke:#000000;stroke-width:1px;stroke-linecap:butt;stroke-linejoin:miter;stroke-opacity:1" />
  <path
     id="path1221"
     d="m 699.02754,472.25618 c 0,0.27622 0.96675,6.49102 0.96675,6.49102 l -5.0409,1.79539 -0.69054,-5.80049 z"
     style="fill:none;stroke:#000000;stroke-width:1px;stroke-linecap:butt;stroke-linejoin:miter;stroke-opacity:1" />
  <path
     id="path1223"
     d="m 696.88688,463.07208 -6.90534,7.87209 8.35546,-0.0691 z"
     style="fill:none;stroke:#000000;stroke-width:1px;stroke-linecap:butt;stroke-linejoin:miter;stroke-opacity:1" />
  <path
     id="path1225"
     d="m 694.74623,455.26905 2.69308,6.56007 -7.45777,9.11505 0.20716,-14.225 2.55498,-0.27622 1.72633,-1.31201 z"
     style="fill:none;stroke:#000000;stroke-width:1px;stroke-linecap:butt;stroke-linejoin:miter;stroke-opacity:1" />
  <path
     id="path1227"
     d="m 699.30375,450.2972 c -0.27621,0.13811 -8.21735,0.82864 -8.21735,0.82864 l -0.69054,4.07415 z"
     style="fill:none;stroke:#000000;stroke-width:1px;stroke-linecap:butt;stroke-linejoin:miter;stroke-opacity:1" />
  <path
     id="path1229"
     d="m 691.43166,442.07985 -0.69053,7.87208 7.45777,-0.82864 z"
     style="fill:none;stroke:#000000;stroke-width:1px;stroke-linecap:butt;stroke-linejoin:miter;stroke-opacity:1" />
  <path
     id="path1231"
     d="m 651.38069,454.92378 0.0691,1.86444 3.59077,-0.0691 4.48847,-2.48592 z"
     style="fill:none;stroke:#000000;stroke-width:1px;stroke-linecap:butt;stroke-linejoin:miter;stroke-opacity:1" />
  <path
     id="path1233"
     d="m 653.52135,452.29975 16.2966,-2.14066 -0.55243,-7.45776 -17.3324,9.39126 z"
     style="fill:none;stroke:#000000;stroke-width:1px;stroke-linecap:butt;stroke-linejoin:miter;stroke-opacity:1" />
  <path
     id="path1235"
     d="m 670.99186,449.53761 17.95388,-8.56262 -4.1432,-6.49102 -14.77743,8.1483 z"
     style="fill:none;stroke:#000000;stroke-width:1px;stroke-linecap:butt;stroke-linejoin:miter;stroke-opacity:1" />
  <path
     id="path1237"
     d="m 693.36516,430.47888 -8.56262,4.00509 3.86699,5.66238 2.96929,-0.69053 2.83119,-1.45012 z"
     style="fill:none;stroke:#000000;stroke-width:1px;stroke-linecap:butt;stroke-linejoin:miter;stroke-opacity:1" />
  <path
     id="path1239"
     d="m 690.67383,455.85938 2.73438,-0.63477 6.68945,-4.73633 18.31055,19.0918 -18.41392,9.16712 -4.43765,-24.40149 z"
     style="fill:none;stroke:#000000;stroke-width:1px;stroke-linecap:butt;stroke-linejoin:miter;stroke-opacity:1" />
  <path
     id="path1241"
     d="m 715.32414,442.63227 6.83629,4.83374 5.179,6.0767 3.17646,10.28896 -11.1176,5.93859 -9.39126,-10.0818 z"
     style="fill:none;stroke:#000000;stroke-width:1px;stroke-linecap:butt;stroke-linejoin:miter;stroke-opacity:1" />
  <path
     id="path1243"
     d="m 692.39841,441.45837 20.92318,-3.52173 -4.21226,20.37076 z"
     style="fill:none;stroke:#000000;stroke-width:1px;stroke-linecap:butt;stroke-linejoin:miter;stroke-opacity:1" />
  <path
     id="path1245"
     d="m 709.86892,433.17196 -7.80303,3.86699 -0.41432,2.00255 11.18665,-2.14066 z"
     style="fill:none;stroke:#000000;stroke-width:1px;stroke-linecap:butt;stroke-linejoin:miter;stroke-opacity:1" />
  <path
     id="path1247"
     d="m 712.28579,421.43288 -1.10485,7.80304 -15.60607,8.07924 -1.31202,-7.59587 18.09199,-9.32221 z"
     style="fill:none;stroke:#000000;stroke-width:1px;stroke-linecap:butt;stroke-linejoin:miter;stroke-opacity:1" />
  <path
     id="path1249"
     d="m 714.63361,422.95206 -0.82865,8.07924 6.56008,-3.24551 -0.34527,-2.14065 z"
     style="fill:none;stroke:#000000;stroke-width:1px;stroke-linecap:butt;stroke-linejoin:miter;stroke-opacity:1" />
  <path
     id="path1251"
     d="m 713.25254,420.8114 7.2506,4.0051 0.41432,-1.58823 -2.62402,-4.35036 -3.03835,0.34526 z"
     style="fill:none;stroke:#000000;stroke-width:1px;stroke-linecap:butt;stroke-linejoin:miter;stroke-opacity:1" />
  <path
     id="path1253"
     d="m 715.73846,431.79089 -1.31201,3.1074 -0.20717,2.34782 0.0691,1.72633 3.17645,3.10741 11.67003,-10.15085 -4.48847,-4.21226 -1.9335,0.27621 z"
     style="fill:none;stroke:#000000;stroke-width:1px;stroke-linecap:butt;stroke-linejoin:miter;stroke-opacity:1" />
  <path
     id="path1255"
     d="m 728.51334,421.7091 -3.93605,-6.83629 -5.93859,2.9693 1.9335,2.48592 4.21225,0.82864 z"
     style="fill:none;stroke:#000000;stroke-width:1px;stroke-linecap:butt;stroke-linejoin:miter;stroke-opacity:1" />
  <path
     id="path1257"
     d="m 755.16795,410.17718 -20.78507,8.35546 -3.93605,3.86699 -5.52427,-9.66748 28.03568,-15.46796 z"
     style="fill:none;stroke:#000000;stroke-width:1px;stroke-linecap:butt;stroke-linejoin:miter;stroke-opacity:1" />
  <path
     id="path1259"
     d="m 729.58985,434.66797 0.19531,4.29688 -0.29297,5.17578 -3.61328,5.76172 -7.61719,-6.44532 z"
     style="fill:none;stroke:#000000;stroke-width:1px;stroke-linecap:butt;stroke-linejoin:miter;stroke-opacity:1" />
  <path
     id="path1261"
     d="m 723.41309,422.5586 c -0.0488,0.12207 -1.87988,4.90722 -1.87988,4.90722 l 3.78418,-0.75683 3.95508,4.10156 -0.0244,-7.51953 -2.46582,-0.85449 z"
     style="fill:none;stroke:#000000;stroke-width:1px;stroke-linecap:butt;stroke-linejoin:miter;stroke-opacity:1" />
  <path
     id="path1263"
     d="m 747.84829,428.26917 -3.24551,5.0409 2.62403,2.27876 2.27876,-0.34527 z"
     style="fill:none;stroke:#000000;stroke-width:1px;stroke-linecap:butt;stroke-linejoin:miter;stroke-opacity:1" />
  <path
     id="path1265"
     d="m 743.15266,419.70655 2.69308,4.35036 3.65983,0.82864 -5.38616,-6.42196 z"
     style="fill:none;stroke:#000000;stroke-width:1px;stroke-linecap:butt;stroke-linejoin:miter;stroke-opacity:1" />
  <path
     id="path1267"
     d="m 736.8688,419.7756 -3.45267,2.83119 -2.48592,2.69308 0.48337,8.56262 -0.20716,4.76469 13.81068,-3.24551 -2.20971,-2.69308 4.14321,-5.24806 -6.14576,-7.73398 z"
     style="fill:none;stroke:#000000;stroke-width:1px;stroke-linecap:butt;stroke-linejoin:miter;stroke-opacity:1" />
  <path
     id="path1269"
     d="m 747.9864,416.53009 0.20716,4.0051 3.59077,3.72888 5.73143,-1.51917 -1.31201,-10.28896 z"
     style="fill:none;stroke:#000000;stroke-width:1px;stroke-linecap:butt;stroke-linejoin:miter;stroke-opacity:1" />
  <path
     id="path1271"
     d="m 749.57462,427.30242 1.51918,7.45777 8.07925,-3.24551 -1.65729,-8.76978 -4.41941,2.34781 z"
     style="fill:none;stroke:#000000;stroke-width:1px;stroke-linecap:butt;stroke-linejoin:miter;stroke-opacity:1" />
  <path
     id="path1273"
     d="m 749.1603,436.69368 10.01275,-5.179 3.79793,17.47051 -5.04089,2.41687 z"
     style="fill:none;stroke:#000000;stroke-width:1px;stroke-linecap:butt;stroke-linejoin:miter;stroke-opacity:1" />
  <path
     id="path1275"
     d="m 746.12195,435.31261 -15.67512,3.24551 0.41432,6.00765 -4.98224,5.33658 5.74183,13.86026 26.30935,-12.36055 z"
     style="fill:none;stroke:#000000;stroke-width:1px;stroke-linecap:butt;stroke-linejoin:miter;stroke-opacity:1" />
  <path
     id="path1277"
     d="M 334.76563,139.45313 1993.1572,125.9534 2026.1719,1260.9375 302.34375,1254.2969 Z"
     style="fill:none;stroke:#000000;stroke-width:1px;stroke-linecap:butt;stroke-linejoin:miter;stroke-opacity:1" />
  <path
     id="path1279"
     d="M 277.34375,78.125 230.85938,1323.4375 2094.5313,1334.7656 2057.8125,61.328125 Z"
     style="fill:none;stroke:#000000;stroke-width:1px;stroke-linecap:butt;stroke-linejoin:miter;stroke-opacity:1" />
  <path
     sodipodi:nodetypes="cccccccccccccccccccccccccccccccccccccccccccccccccccc"
     id="path1281"
     d="m 1496.4844,802.92969 30.0781,32.42188 61.5234,163.28125 -4.6875,25.19528 -113.3897,37.3845 -45.8514,5.5243 -14.3631,41.9844 h -9.3913 l -6.0767,-8.2864 -3.867,-0.5524 -3.3146,-8.2864 -97.7796,34.2505 -13.8107,-10.4961 -41.432,19.7492 -3.5908,11.601 c 0,0 -32.317,47.2325 -44.7466,46.1277 0.5525,0.4143 -7.8721,8.2864 -7.8721,8.2864 l -8.0101,16.849 -17.5396,36.8745 -119.6005,1.1049 1.1049,-12.4296 c 0,0 -24.8593,-10.358 1.7953,-20.4398 -0.5524,0.6905 7.1816,-2.7622 7.1816,-2.7622 l 10.2199,1.1049 28.8643,-9.5294 15.0537,-24.1687 50.5471,-80.3781 28.4499,-31.0741 121.8102,-64.4958 8.5627,-14.22503 -93.4983,12.15343 -40.8796,23.7543 -5.5243,0.2763 -4.8338,-1.243 -0.6905,-7.4578 -6.0767,-1.7954 -1.5192,-2.9002 7.0435,-27.75947 37.565,-24.99733 12.2915,-5.93859 26.1022,-14.50122 48.6136,-14.225 12.5677,-7.45776 35.4935,-65.0483 25.9641,-35.63156 37.1229,-18.32845 6.8359,-2.34375 -13.4766,-12.5 20.8985,20.50781 43.3593,-1.95313 34.375,-10.35156 9.5704,-0.39062"
     style="fill:none;stroke:#000000;stroke-width:1px;stroke-linecap:butt;stroke-linejoin:miter;stroke-opacity:1" />
  <path
     id="path1283"
     d="m 1420.2903,589.99222 24.3068,-7.45776 19.3349,11.60097 8.5626,0.55242 10.2199,19.88738 c 0,0 29.2787,-7.45776 49.7185,40.87961 -0.5524,-0.27621 12.1534,7.73398 12.1534,7.73398 l -1.6573,9.11505 -3.0383,-0.27621 2.492,42.03484 -9.5703,27.14844 -0.7812,13.86719 -50,43.55469 -69.336,11.32812 -41.7969,-51.5625 -4.1015,-11.91406 5.4687,-32.42188 -6.25,-26.17187 -9.7656,-10.35156 -4.6875,-34.57032 4.1016,-28.32031 22.8515,4.29688 20.3125,-8.78907 z"
     style="fill:none;stroke:#000000;stroke-width:1px;stroke-linecap:butt;stroke-linejoin:miter;stroke-opacity:1" />
  <path
     id="path1285"
     d="m 1614.4684,512.37621 -23.7543,17.12524 -11.0486,11.32475 -1.9335,16.84903 -8.0102,27.06894 0.5524,7.18155 v 9.39126 l -1.381,7.73398 c 0,0 3.867,9.94369 5.5242,9.39126 1.6573,-0.55242 5.2481,-1.65728 5.2481,-1.65728 l -6.0767,8.0102 -6.3529,27.06893 0.5524,8.56262 37.5651,5.80048 1.1048,2.48593 36.4602,-1.10486 24.8592,-3.03835 9.9437,-7.73398 15.7442,0.27621 20.9922,-7.45776 23.4782,-6.0767 c 0,0 46.1277,-56.62379 -23.2019,-109.6568 -0.5525,-0.82864 -19.0588,-26.5165 -40.051,-30.6597 -1.1049,0 -48.6136,3.86699 -48.6136,3.86699 z"
     style="fill:none;stroke:#000000;stroke-width:1px;stroke-linecap:butt;stroke-linejoin:miter;stroke-opacity:1" />
  <path
     id="path1287"
     d="m 1608.3917,671.75145 -13.5344,8.01019 -1.3811,9.94369 -43.0893,112.97136 -21.2685,-2.48593 -6.6291,-14.63932 -20.1636,11.60097 30.1073,40.87961 52.7233,143.21798 7.215,23.615 -6.2148,26.7928 -108.4138,30.2453 -49.8566,7.3197 -14.7774,40.3272 -14.225,1.9335 -13.3963,-14.6393 -98.6083,32.0407 c 0,0 -28.7262,10.358 -37.0126,30.3835 0.8286,-0.8286 -48.0612,72.7823 -48.0612,72.7823 l -13.9488,24.4449 289.4719,-0.2762 38.9461,-72.9204 c 0,0 -0.8287,-5.248 29.2786,-12.982 -0.4143,-0.1381 70.7107,-10.358 70.7107,-10.358 l -0.8286,-32.8695 1.381,-5.1099 c 0,0 11.601,9.6675 20.9923,-37.2888 0.2762,-1.243 -16.2966,-6.9054 -16.2966,-6.9054 l 8.5626,-9.2531 39.4568,-20.876 -4.3946,-198.43755 -1.0742,-59.76562 11.3281,-60.54688 29.6875,-6.25 66.7969,-33.20312 0.7813,-6.64063 -11.9141,0.97657 -8.0078,-25.97657 c 0,0 -10.5469,-12.30468 -15.2344,-12.30468 -0.7812,0.19531 -43.3594,13.47656 -43.3594,13.47656 l -16.4062,0.78125 -8.7891,7.42187 z"
     style="fill:none;stroke:#000000;stroke-width:1px;stroke-linecap:butt;stroke-linejoin:miter;stroke-opacity:1" />
  <path
     id="path1289"
     d="m 1813.066,683.0762 c 0,0 29.0024,25.96408 88.6646,4.41942 -0.5525,0.55243 -0.5525,-16.2966 -0.5525,-16.2966 l 12.4296,-38.94612 9.9437,-1.38107 9.1151,-0.27621 12.982,-52.75679 -6.3529,-4.97185 -3.5908,-1.38107 3.5908,-14.3631 c 0,0 -0.8286,-32.86942 -25.4117,-36.4602 2.486,0.27622 -10.7723,-11.32475 -17.9538,-11.04854 0.8286,0.27621 -1.9335,-21.54466 -48.8898,-18.78252 0.5524,0 -68.2248,12.98203 -78.9971,56.34757 1.6573,-5.80049 -8.8389,13.81068 -1.1049,30.93592 -0.2762,-1.38107 -6.4891,9.9709 -6.4891,9.9709 l 1.6602,12.5 3.3203,5.46875 1.6602,-2.53906 12.5976,28.90625 6.6406,3.61328 12.1094,-2.34375 1.0742,16.30859 4.7155,0.20679 4.0736,29.2854 z"
     style="fill:none;stroke:#000000;stroke-width:1px;stroke-linecap:butt;stroke-linejoin:miter;stroke-opacity:1" />
  <path
     id="path1291"
     d="m 1808.3704,684.18106 -34.803,9.11504 -24.583,9.94369 -32.5932,20.71602 -1.1048,12.1534 -18.5063,21.54466 -14.3631,70.71068 5.8004,182.57715 8.5627,17.9539 43.9179,-1.1048 3.0384,23.4781 11.8772,32.317 79.5427,-18.7421 62.1093,-0.7813 56.3931,-6.9931 -30.6118,-49.6475 4.6875,-16.01565 20.7031,-3.125 8.5938,5.46875 5.8593,-1.95312 1.1719,-15.625 4.6875,-20.70313 -15.2344,-18.35937 -10.1562,-1.17188 -9.7656,-0.39062 -12.8907,9.375 -14.8437,6.64062 c 0,0 1.1719,-48.4375 46.875,-103.90625 0.7812,2.73438 6.25,-19.92187 57.8125,-34.375 1.1719,-1.17187 -1.9531,-99.21875 -1.9531,-99.21875 0,0 -4.4723,-22.91994 -100,-26.95312 1.5625,0.78125 -15.2344,8.98437 -15.2344,8.98437 l -54.6875,5.46875 z"
     style="fill:none;stroke:#000000;stroke-width:1px;stroke-linecap:butt;stroke-linejoin:miter;stroke-opacity:1" />
  <path
     id="path1293"
     d="m 1980.0781,868.75 -19.9218,24.21875 -10.9375,28.90625 13.6718,12.89063 12.8907,21.48437 -6.25,28.90625 -8.2032,17.96875 7.0313,12.5 46.4844,-35.9375 -1.5625,-63.28125 z"
     style="fill:none;stroke:#000000;stroke-width:1px;stroke-linecap:butt;stroke-linejoin:miter;stroke-opacity:1" />
  <path
     id="path1295"
     d="m 2001.9531,852.34375 10.5469,23.04688 c 0,0 -0.3906,-25.39063 -1.9531,-25.39063 -1.5625,0 -8.5938,2.34375 -8.5938,2.34375 z"
     style="fill:none;stroke:#000000;stroke-width:1px;stroke-linecap:butt;stroke-linejoin:miter;stroke-opacity:1" />
  <path
     id="path1297"
     d="m 2016.4063,1013.2813 -20.3125,24.6093 17.5781,-0.3906 z"
     style="fill:none;stroke:#000000;stroke-width:1px;stroke-linecap:butt;stroke-linejoin:miter;stroke-opacity:1" />
</svg>
